<svg xmlns:xlink="http://www.w3.org/1999/xlink" xmlns="http://www.w3.org/2000/svg" viewBox="0 0 24 24" aria-hidden="true" focusable="false" width="24"  height="24" ><path d="M18 2H6C3.8 2 2 3.8 2 6v12c0 2.2 1.8 4 4 4h12c2.2 0 4-1.8 4-4V6c0-2.2-1.8-4-4-4zm-1.3 16s-2.3-.1-3.3-.1H9l-2.6.1v-.7l.9-.2c.6-.1.7-.2.7-.7 0 0 .1-1.6.1-4.3 0-2.7-.1-4.4-.1-4.4 0-.5-.2-.6-.8-.7l-.8-.2v-.7l2.6.1h4.9c1 0 2.6-.2 2.6-.2s-.1 1-.1 3.4h-.7l-.2-.8c-.3-1.1-.7-1.6-1.4-1.6h-3.8c-.3 0-.3 0-.3.2v4.4s1.6 0 2.4-.1c.4.1.9-.3.9-.7v-.1l.2-1h.7l-.1 2.1.1 2.2h-.7l-.2-.8c-.1-.5-.5-.8-.9-.8-.6-.1-2.4-.1-2.4-.1V16c0 .7.4 1 1.2 1h2.6c.9.1 1.8-.4 2.1-1.2l.7-1.4h.6c-.1.4-.4 3-.5 3.6z" fill="#FFFFFF"></path></svg>