<svg xmlns:xlink="http://www.w3.org/1999/xlink" xmlns="http://www.w3.org/2000/svg" viewBox="3 3 18 18" aria-hidden="true" focusable="false" width="18"  height="18" ><path class="background" d="M12.007 16.97l4.21 2.95c.182.12.422.11.592-.027.17-.138.23-.37.15-.574l-1.484-5.33 4.306-3.073c.182-.12.265-.347.203-.557-.065-.21-.258-.352-.477-.352h-5.35l-1.67-5.642c-.06-.215-.257-.363-.48-.363-.225 0-.42.148-.482.363v12.94l.48-.335z" fill="#E1E3DF"></path><path class="foreground" d="M12 4c-.224 0-.42.15-.48.366l-1.67 5.642H4.5c-.218.002-.41.145-.472.354-.064.208.014.433.193.557l4.307 3.07-1.5 5.33c-.08.202-.02.433.15.57.17.14.41.15.59.03L12 16.98V4z" fill="#222222"></path></svg>