<svg xmlns:xlink="http://www.w3.org/1999/xlink" xmlns="http://www.w3.org/2000/svg" viewBox="0 0 24 24" aria-hidden="true" focusable="false" width="36"  height="36" ><path d="M12,5.447c2.136,0,2.389,0.008,3.233,0.047c0.78,0.036,1.204,0.166,1.485,0.275c0.373,0.145,0.64,0.318,0.92,0.598 c0.28,0.28,0.453,0.546,0.598,0.92c0.11,0.282,0.24,0.706,0.275,1.485c0.038,0.844,0.047,1.097,0.047,3.233 s-0.008,2.389-0.047,3.233c-0.036,0.78-0.166,1.204-0.275,1.485c-0.145,0.373-0.318,0.64-0.598,0.92 c-0.28,0.28-0.546,0.453-0.92,0.598c-0.282,0.11-0.706,0.24-1.485,0.275c-0.843,0.038-1.096,0.047-3.233,0.047 s-2.389-0.008-3.233-0.047c-0.78-0.036-1.204-0.166-1.485-0.275c-0.373-0.145-0.64-0.318-0.92-0.598 c-0.28-0.28-0.453-0.546-0.598-0.92c-0.11-0.282-0.24-0.706-0.275-1.485c-0.038-0.844-0.047-1.097-0.047-3.233 S5.45,9.616,5.488,8.773c0.036-0.78,0.166-1.204,0.275-1.485c0.145-0.373,0.318-0.64,0.598-0.92c0.28-0.28,0.546-0.453,0.92-0.598 c0.282-0.11,0.706-0.24,1.485-0.275C9.611,5.455,9.864,5.447,12,5.447 M12,4.005c-2.173,0-2.445,0.009-3.298,0.048 C7.85,4.092,7.269,4.227,6.76,4.425C6.234,4.63,5.787,4.903,5.343,5.348C4.898,5.793,4.624,6.239,4.42,6.765 c-0.198,0.509-0.333,1.09-0.372,1.942C4.009,9.56,4,9.833,4,12.005c0,2.173,0.009,2.445,0.048,3.298 c0.039,0.852,0.174,1.433,0.372,1.942c0.204,0.526,0.478,0.972,0.923,1.417c0.445,0.445,0.891,0.718,1.417,0.923 c0.509,0.198,1.09,0.333,1.942,0.372c0.853,0.039,1.126,0.048,3.298,0.048s2.445-0.009,3.298-0.048 c0.852-0.039,1.433-0.174,1.942-0.372c0.526-0.204,0.972-0.478,1.417-0.923c0.445-0.445,0.718-0.891,0.923-1.417 c0.198-0.509,0.333-1.09,0.372-1.942C19.991,14.45,20,14.178,20,12.005s-0.009-2.445-0.048-3.298 c-0.039-0.852-0.174-1.433-0.372-1.942c-0.204-0.526-0.478-0.972-0.923-1.417c-0.445-0.445-0.891-0.718-1.417-0.923 c-0.509-0.198-1.09-0.333-1.942-0.372C14.445,4.014,14.173,4.005,12,4.005L12,4.005z" fill="#FFFFFF"></path><path d="M12,7.897c-2.269,0-4.108,1.839-4.108,4.108S9.731,16.113,12,16.113s4.108-1.839,4.108-4.108S14.269,7.897,12,7.897z  M12,14.672c-1.473,0-2.667-1.194-2.667-2.667S10.527,9.339,12,9.339s2.667,1.194,2.667,2.667S13.473,14.672,12,14.672z" fill="#FFFFFF"></path><circle cx="16.27" cy="7.735" r="0.96" fill="#FFFFFF"></circle></svg>