<svg xmlns="http://www.w3.org/2000/svg" xmlns:xlink="http://www.w3.org/1999/xlink" width="80" height="27" viewBox="0 0 97 30" version="1.1">
    <!-- Generator: Sketch 54.1 (76490) - https://sketchapp.com -->
    <title>amazon-logo_rgb_clr</title>
    <desc>Created with Sketch.</desc>
    <defs>
        <polygon id="path-1" points="0.251389612 0.347332724 47.088312 0.347332724 47.088312 10.8808857 0.251389612 10.8808857"/>
    </defs>
    <g id="Symbols" stroke="none" stroke-width="1" fill="none" fill-rule="evenodd">
        <g id="Menu-/-Filled" transform="translate(-120.000000, -30.000000)">
            <g id="Nav">
                <g id="amazon-logo_rgb_clr" transform="translate(120.000000, 30.000000)">
                    <g id="Group-3" transform="translate(13.363725, 18.287203)">
                        <mask id="mask-2" fill="white">
                            <use xlink:href="#path-1"/>
                        </mask>
                        <g id="Clip-2"/>
                        <path d="M46.6742169,4.54577662 C41.0512537,8.69556496 32.899733,10.9019863 25.8799088,10.9019863 C16.042097,10.9019863 7.1826506,7.26529469 0.478632367,1.21223054 C-0.0474763921,0.736763269 0.421660697,0.0875675676 1.05467926,0.455773364 C8.28761967,4.66464344 17.2325236,7.19917942 26.4707261,7.19917942 C32.7027939,7.19917942 39.5531097,5.90606317 45.8569196,3.23226311 C46.8075024,2.82888961 47.6044025,3.8585998 46.6742169,4.54577662" id="Fill-1" fill="#EC912D" mask="url(#mask-2)"/>
                    </g>
                    <path d="M62.377649,20.1616412 C61.6584696,19.2409508 57.6240313,19.7255617 55.8111364,19.9425464 C55.2621687,20.0086617 55.1770628,19.5286226 55.6718724,19.1811657 C58.8907717,16.9205861 64.1645197,17.5732986 64.7774927,18.3301075 C65.3946858,19.0935982 64.6150179,24.3810615 61.5990361,26.9043439 C61.1348225,27.2922436 60.6934679,27.0854575 60.8995506,26.5730641 C61.5782872,24.8779811 63.0975317,21.0830348 62.377649,20.1616412" id="Fill-4" fill="#EC912D"/>
                    <path d="M55.9387952,3.21116249 L55.9387952,1.01458808 C55.9409052,0.679791599 56.1923543,0.457531749 56.4958515,0.458235103 L66.3414002,0.457531749 C66.6561511,0.457531749 66.9090068,0.686473461 66.9090068,1.01142299 L66.9090068,2.89535656 C66.9058417,3.21186584 66.6396223,3.62367958 66.1676718,4.27850212 L61.0676522,11.5596223 C62.9607294,11.515311 64.9631781,11.799466 66.6832302,12.7658743 C67.0711299,12.983914 67.1752263,13.3064018 67.2054705,13.6232628 L67.2054705,15.9671898 C67.2054705,16.2896776 66.8520352,16.6638619 66.4803126,16.4690329 C63.4502638,14.881563 59.4288375,14.7085379 56.0780593,16.4887268 C55.7355259,16.6708955 55.3775187,16.302338 55.3775187,15.9791469 L55.3775187,13.7512732 C55.3775187,13.3943211 55.3842006,12.7848649 55.7439661,12.2415239 L61.652491,3.76470205 L56.5078085,3.76435037 C56.1934093,3.76435037 55.9409052,3.54033214 55.9387952,3.21116249" id="Fill-5" fill="#232F3E"/>
                    <path d="M75.4118528,3.31279713 C73.2029697,3.31279713 73.0637056,6.32033865 73.0637056,8.19688701 C73.0637056,10.0730837 73.0359232,14.0843113 75.3847737,14.0843113 C77.7054901,14.0843113 77.8169717,10.8492348 77.8169717,8.87667861 C77.8169717,7.582859 77.761055,6.02985347 77.3689352,4.80039075 C77.033787,3.73269945 76.3624357,3.31279713 75.4118528,3.31279713 Z M75.3847737,0.174431781 C79.8299707,0.174431781 82.2340345,3.99188538 82.2340345,8.84397265 C82.2340345,13.5339368 79.5788733,17.2550309 75.3847737,17.2550309 C71.0229241,17.2550309 68.6459394,13.436874 68.6459394,8.68220124 C68.6459394,3.89447086 71.0503549,0.174431781 75.3847737,0.174431781 L75.3847737,0.174431781 Z" id="Fill-6" fill="#232F3E"/>
                    <path d="M51.1113253,16.892452 C50.9133312,17.0704005 50.5514556,17.076379 50.4037512,16.962084 C49.3803712,16.1704591 48.6868642,14.9663172 48.6868642,14.9663172 C47.0424227,16.6410029 45.8780202,17.1435493 43.7486161,17.1435493 C41.2270922,17.1435493 39.265438,15.587027 39.265438,12.4753891 C39.265438,10.0438945 40.5821166,8.39030935 42.45972,7.58004559 C44.0844676,6.866493 46.3545425,6.73707587 48.0911234,6.54189515 C48.0911234,6.54189515 48.236366,4.66534679 47.7274894,3.98098339 C47.3332595,3.45065451 46.6622599,3.20272224 46.0464735,3.20272224 C44.9351742,3.19815044 43.8618561,3.80268317 43.6487398,4.96497558 C43.5878997,5.29731032 43.3424292,5.57654184 43.0839466,5.54875936 L40.2156692,5.23787691 C39.9958711,5.21255617 39.697649,4.9860762 39.768336,4.61154021 C40.4354673,1.08949528 43.6156822,0.0256724194 46.4663758,0.0256724194 C47.9233735,0.0256724194 49.8287594,0.41427548 50.977688,1.51713448 C52.4343341,2.87847607 52.2947183,4.69453598 52.2947183,6.67271898 L52.2947183,11.3380658 C52.2947183,12.742312 52.8774471,13.3577467 53.4246565,14.1138522 C53.6156171,14.3871052 53.659225,14.710648 53.4155129,14.9100488 C52.8032432,15.4231456 51.1113253,16.892452 51.1113253,16.892452 Z M48.0911234,9.58987952 C48.0911234,10.7574471 48.1196092,11.7291306 47.5312537,12.767281 C47.055083,13.6095474 46.2982742,14.1286226 45.4577662,14.1286226 C44.3091892,14.1286226 43.6364311,13.2529469 43.6364311,11.9559622 C43.6364311,9.4052491 45.9251449,8.94173885 48.0911234,8.94173885 L48.0911234,9.58987952 L48.0911234,9.58987952 Z" id="Fill-7" fill="#232F3E"/>
                    <path d="M11.8455357,16.892452 C11.6478932,17.0704005 11.2856659,17.076379 11.1383133,16.962084 C10.1145816,16.1704591 9.42142625,14.9663172 9.42142625,14.9663172 C7.77663302,16.6410029 6.61258222,17.1435493 4.48317812,17.1435493 C1.96130251,17.1435493 0,15.587027 0,12.4753891 C0,10.0438945 1.31667861,8.39030935 3.19428199,7.58004559 C4.81902963,6.866493 7.08910453,6.73707587 8.82568544,6.54189515 C8.82568544,6.54189515 8.97057636,4.66534679 8.46205145,3.98098339 C8.06746988,3.45065451 7.39682188,3.20272224 6.78068382,3.20272224 C5.66973624,3.19815044 4.59606643,3.80268317 4.38330186,4.96497558 C4.32211006,5.29731032 4.07699121,5.57654184 3.81850863,5.54875936 L0.949879518,5.23787691 C0.730081407,5.21255617 0.431859329,4.9860762 0.502546402,4.61154021 C1.16967763,1.08949528 4.34989254,0.0256724194 7.20093781,0.0256724194 C8.65793553,0.0256724194 10.5633214,0.41427548 11.7122501,1.51713448 C13.1685444,2.87847607 13.0289287,4.69453598 13.0289287,6.67271898 L13.0289287,11.3380658 C13.0289287,12.742312 13.6120091,13.3577467 14.1592185,14.1138522 C14.3501791,14.3871052 14.393787,14.710648 14.1497232,14.9100488 C13.5378053,15.4231456 11.8455357,16.892452 11.8455357,16.892452 Z M8.82568544,9.58987952 C8.82568544,10.7574471 8.8538196,11.7291306 8.26546402,12.767281 C7.78964507,13.6095474 7.03248453,14.1286226 6.19197655,14.1286226 C5.04339954,14.1286226 4.37064148,13.2529469 4.37064148,11.9559622 C4.37064148,9.4052491 6.65970694,8.94173885 8.82568544,8.94173885 L8.82568544,9.58987952 L8.82568544,9.58987952 Z" id="Fill-8" fill="#232F3E"/>
                    <path d="M20.6047542,8.22888961 C20.6047542,6.44975578 20.5207034,3.99188538 22.6740215,3.99188538 C24.7985021,3.99188538 24.5189189,6.51481602 24.5189189,8.22888961 L24.522084,16.3790036 C24.522084,16.6737089 24.7587626,16.9117942 25.0597981,16.9307848 L28.0515142,16.9307848 C28.3708369,16.9307848 28.6289678,16.6846109 28.6289678,16.3779486 L28.6289678,8.22888961 C28.6289678,7.355324 28.6011853,6.06220775 28.908551,5.28535331 C29.2162683,4.50885054 29.9713188,4.02353631 30.6985868,4.02353631 C31.5647672,4.02353631 32.2357669,4.31507652 32.4594334,5.35041355 C32.5994008,5.9651449 32.5434842,7.582859 32.5434842,8.22888961 L32.5445392,16.3790036 C32.5445392,16.6737089 32.7808662,16.9117942 33.0819017,16.9307848 L36.073266,16.9307848 C36.3929404,16.9307848 36.6510713,16.6846109 36.6510713,16.3779486 L36.6538847,6.67658743 C36.6538847,5.02651905 36.8490655,3.15067405 35.8984826,1.85650277 C35.059733,0.691748616 33.6899512,0.174431781 32.4316509,0.174431781 C30.6704526,0.174431781 29.0207359,1.08035168 28.2934679,3.02125692 C27.4547183,1.08035168 26.2804689,0.174431781 24.4070856,0.174431781 C22.5621882,0.174431781 21.1920547,1.08035168 20.4654901,3.02125692 L20.4088701,3.02125692 L20.4088701,1.05819603 C20.4088701,0.749071964 20.1584761,0.498677955 19.849352,0.498677955 L17.0545751,0.498677955 C16.745451,0.498677955 16.495057,0.749071964 16.495057,1.05819603 L16.495057,16.3712667 C16.495057,16.6803908 16.745451,16.9307848 17.0545751,16.9307848 L20.0452361,16.9307848 C20.3543601,16.9307848 20.6047542,16.6803908 20.6047542,16.3712667 L20.6047542,8.22888961" id="Fill-9" fill="#232F3E"/>
                    <path d="M88.5842657,16.3712667 C88.5842657,16.6803908 88.3338717,16.9307848 88.0247476,16.9307848 L85.0337349,16.9307848 C84.7249626,16.9307848 84.4742169,16.6803908 84.4742169,16.3712667 L84.4742169,1.05819603 C84.4742169,0.749071964 84.7249626,0.498677955 85.0337349,0.498677955 L87.7993227,0.498677955 C88.1232172,0.498677955 88.3588408,0.759270596 88.3588408,0.935812439 L88.3588408,3.2797395 L88.4165158,3.2797395 C89.2556171,1.17671117 90.4291631,0.174431781 92.4980788,0.174431781 C93.8404298,0.174431781 95.1546467,0.659394334 95.9933963,1.98627157 C96.7762292,3.21503093 96.7762292,5.28535331 96.7762292,6.77365028 L96.7762292,16.4472289 C96.7428199,16.7194269 96.4980528,16.9307848 96.2019407,16.9307848 L93.1996744,16.9307848 C92.9222012,16.9132009 92.6985347,16.7092283 92.6665321,16.4472289 L92.6714556,7.15838489 C92.6714556,4.05061543 91.4806773,3.95917942 90.7935005,3.95917942 C89.9941387,3.95917942 89.3512732,4.58340606 89.0699316,5.16578313 C88.6507327,6.10440899 88.583914,7.06448714 88.583914,8.10052752 L88.5842657,16.3712667" id="Fill-10" fill="#232F3E"/>
                </g>
            </g>
        </g>
    </g>
</svg>