<svg xmlns:xlink="http://www.w3.org/1999/xlink" xmlns="http://www.w3.org/2000/svg" viewBox="0 0 24 24" aria-hidden="true" focusable="false" width="36"  height="36" ><path d="M12 3c-4.97 0-9 4.03-9 9 0 3.813 2.372 7.072 5.72 8.384-.08-.712-.15-1.807.03-2.585.164-.703 1.056-4.475 1.056-4.475s-.27-.54-.27-1.336c0-1.252.726-2.187 1.63-2.187.768 0 1.14.577 1.14 1.268 0 .773-.493 1.928-.746 2.998-.212.896.45 1.626 1.333 1.626 1.6 0 2.83-1.687 2.83-4.12 0-2.156-1.55-3.663-3.76-3.663-2.56 0-4.064 1.922-4.064 3.907 0 .773.297 1.603.67 2.054.073.09.083.168.06.26-.067.283-.22.895-.25 1.02-.038.165-.13.2-.3.12-1.124-.523-1.827-2.167-1.827-3.487 0-2.84 2.063-5.446 5.947-5.446 3.122 0 5.548 2.225 5.548 5.198 0 3.102-1.956 5.598-4.67 5.598-.912 0-1.77-.474-2.063-1.033l-.56 2.14c-.204.78-.753 1.76-1.12 2.358.842.26 1.737.402 2.665.402 4.97 0 9-4.03 9-9s-4.03-9-9-9" fill="#FFFFFF"></path></svg>