<svg xmlns:xlink="http://www.w3.org/1999/xlink" xmlns="http://www.w3.org/2000/svg" viewBox="0 0 24 24" aria-hidden="true" focusable="false" width="36"  height="36" ><path d="M18.3,8.559V9.007a9.666,9.666,0,0,1-9.729,9.737,9.614,9.614,0,0,1-5.256-1.394,5.367,5.367,0,0,0,.814.057,6.906,6.906,0,0,0,4.245-1.621,3.412,3.412,0,0,1-3.186-2.379,3.339,3.339,0,0,0,1.548-.058A3.419,3.419,0,0,1,3.988,9.993V9.952a3.427,3.427,0,0,0,1.548.424A3.407,3.407,0,0,1,4,7.54a3.261,3.261,0,0,1,.465-1.662A9.729,9.729,0,0,0,11.517,9.39a3.588,3.588,0,0,1-.073-0.79,3.408,3.408,0,0,1,3.414-3.414,3.542,3.542,0,0,1,2.518,1.075,6.837,6.837,0,0,0,2.159-.831,3.391,3.391,0,0,1-1.507,1.9A6.657,6.657,0,0,0,20,6.782,6.927,6.927,0,0,1,18.3,8.559Z" fill="#FFFFFF"></path></svg>